<mxfile modified="2023-09-12T10:20:56.432Z" host="app.diagrams.net" agent="Mozilla/5.0 (Windows NT 10.0; Win64; x64) AppleWebKit/537.36 (KHTML, like Gecko) Chrome/116.0.0.0 Safari/537.36 Edg/116.0.1938.76" etag="Tq7u0MW4mZi64CX76Ov4" version="21.7.2" type="github">
  <diagram id="1JJ-UvxjRfw-XplDersZ" name="Page-1">
    <mxGraphModel dx="3443" dy="3562" grid="1" gridSize="10" guides="1" tooltips="1" connect="1" arrows="1" fold="1" page="1" pageScale="1" pageWidth="1169" pageHeight="827" math="0" shadow="0">
      <root>
        <mxCell id="0" />
        <mxCell id="1" parent="0" />
        <mxCell id="yJ9xiVmko6FUMowYA85W-11" style="edgeStyle=orthogonalEdgeStyle;rounded=0;orthogonalLoop=1;jettySize=auto;html=1;entryX=0.5;entryY=0;entryDx=0;entryDy=0;" edge="1" parent="1" source="yJ9xiVmko6FUMowYA85W-1" target="yJ9xiVmko6FUMowYA85W-4">
          <mxGeometry relative="1" as="geometry" />
        </mxCell>
        <mxCell id="yJ9xiVmko6FUMowYA85W-1" value="ships_flows&lt;br&gt;[500Gi]&lt;br&gt;[pxc]" style="shape=cylinder3;whiteSpace=wrap;html=1;boundedLbl=1;backgroundOutline=1;size=15;" vertex="1" parent="1">
          <mxGeometry x="1115" y="370" width="70" height="80" as="geometry" />
        </mxCell>
        <mxCell id="yJ9xiVmko6FUMowYA85W-2" value="ecs_merchant_ship&lt;div&gt;[50G]&amp;nbsp;&lt;/div&gt;" style="shape=cylinder3;whiteSpace=wrap;html=1;boundedLbl=1;backgroundOutline=1;size=15;" vertex="1" parent="1">
          <mxGeometry x="1337" y="500" width="126" height="80" as="geometry" />
        </mxCell>
        <mxCell id="yJ9xiVmko6FUMowYA85W-3" value="device_ai&lt;br&gt;[50Gi]" style="shape=cylinder3;whiteSpace=wrap;html=1;boundedLbl=1;backgroundOutline=1;size=15;" vertex="1" parent="1">
          <mxGeometry x="720" y="-230" width="60" height="80" as="geometry" />
        </mxCell>
        <mxCell id="yJ9xiVmko6FUMowYA85W-4" value="List" style="swimlane;fontStyle=0;childLayout=stackLayout;horizontal=1;startSize=30;horizontalStack=0;resizeParent=1;resizeParentMax=0;resizeLast=0;collapsible=1;marginBottom=0;whiteSpace=wrap;html=1;" vertex="1" parent="1">
          <mxGeometry x="1080" y="500" width="140" height="150" as="geometry">
            <mxRectangle x="1080" y="500" width="60" height="30" as="alternateBounds" />
          </mxGeometry>
        </mxCell>
        <mxCell id="yJ9xiVmko6FUMowYA85W-5" value="ships_flows[15G]" style="text;strokeColor=none;fillColor=none;align=left;verticalAlign=middle;spacingLeft=4;spacingRight=4;overflow=hidden;points=[[0,0.5],[1,0.5]];portConstraint=eastwest;rotatable=0;whiteSpace=wrap;html=1;" vertex="1" parent="yJ9xiVmko6FUMowYA85W-4">
          <mxGeometry y="30" width="140" height="30" as="geometry" />
        </mxCell>
        <mxCell id="yJ9xiVmko6FUMowYA85W-28" value="fj_ships_flows[800M]" style="text;strokeColor=none;fillColor=none;align=left;verticalAlign=middle;spacingLeft=4;spacingRight=4;overflow=hidden;points=[[0,0.5],[1,0.5]];portConstraint=eastwest;rotatable=0;whiteSpace=wrap;html=1;" vertex="1" parent="yJ9xiVmko6FUMowYA85W-4">
          <mxGeometry y="60" width="140" height="30" as="geometry" />
        </mxCell>
        <mxCell id="yJ9xiVmko6FUMowYA85W-6" value="zj_ships_flows[1.1G]" style="text;strokeColor=none;fillColor=none;align=left;verticalAlign=middle;spacingLeft=4;spacingRight=4;overflow=hidden;points=[[0,0.5],[1,0.5]];portConstraint=eastwest;rotatable=0;whiteSpace=wrap;html=1;" vertex="1" parent="yJ9xiVmko6FUMowYA85W-4">
          <mxGeometry y="90" width="140" height="30" as="geometry" />
        </mxCell>
        <mxCell id="yJ9xiVmko6FUMowYA85W-74" value="fxmall_stock[110M]" style="text;strokeColor=none;fillColor=none;align=left;verticalAlign=middle;spacingLeft=4;spacingRight=4;overflow=hidden;points=[[0,0.5],[1,0.5]];portConstraint=eastwest;rotatable=0;whiteSpace=wrap;html=1;" vertex="1" parent="yJ9xiVmko6FUMowYA85W-4">
          <mxGeometry y="120" width="140" height="30" as="geometry" />
        </mxCell>
        <mxCell id="yJ9xiVmko6FUMowYA85W-12" value="device_plat&lt;br&gt;[200Gi]" style="shape=cylinder3;whiteSpace=wrap;html=1;boundedLbl=1;backgroundOutline=1;size=15;" vertex="1" parent="1">
          <mxGeometry x="715" y="-660" width="70" height="80" as="geometry" />
        </mxCell>
        <mxCell id="yJ9xiVmko6FUMowYA85W-18" value="gis" style="shape=process;whiteSpace=wrap;html=1;backgroundOutline=1;" vertex="1" parent="1">
          <mxGeometry x="360" y="90" width="120" height="60" as="geometry" />
        </mxCell>
        <mxCell id="yJ9xiVmko6FUMowYA85W-41" style="edgeStyle=orthogonalEdgeStyle;rounded=0;orthogonalLoop=1;jettySize=auto;html=1;entryX=0.55;entryY=0.95;entryDx=0;entryDy=0;entryPerimeter=0;" edge="1" parent="1" source="yJ9xiVmko6FUMowYA85W-19" target="yJ9xiVmko6FUMowYA85W-40">
          <mxGeometry relative="1" as="geometry" />
        </mxCell>
        <mxCell id="yJ9xiVmko6FUMowYA85W-71" value="" style="edgeStyle=orthogonalEdgeStyle;rounded=0;orthogonalLoop=1;jettySize=auto;html=1;" edge="1" parent="1" source="yJ9xiVmko6FUMowYA85W-19" target="yJ9xiVmko6FUMowYA85W-2">
          <mxGeometry relative="1" as="geometry" />
        </mxCell>
        <mxCell id="yJ9xiVmko6FUMowYA85W-72" style="edgeStyle=orthogonalEdgeStyle;rounded=0;orthogonalLoop=1;jettySize=auto;html=1;exitX=0;exitY=0.5;exitDx=0;exitDy=0;entryX=1;entryY=0.5;entryDx=0;entryDy=0;entryPerimeter=0;" edge="1" parent="1" source="yJ9xiVmko6FUMowYA85W-19" target="yJ9xiVmko6FUMowYA85W-1">
          <mxGeometry relative="1" as="geometry" />
        </mxCell>
        <mxCell id="yJ9xiVmko6FUMowYA85W-19" value="商船系统" style="shape=process;whiteSpace=wrap;html=1;backgroundOutline=1;" vertex="1" parent="1">
          <mxGeometry x="1340" y="380" width="120" height="60" as="geometry" />
        </mxCell>
        <mxCell id="yJ9xiVmko6FUMowYA85W-75" value="" style="edgeStyle=orthogonalEdgeStyle;rounded=0;orthogonalLoop=1;jettySize=auto;html=1;" edge="1" parent="1" source="yJ9xiVmko6FUMowYA85W-20" target="yJ9xiVmko6FUMowYA85W-1">
          <mxGeometry relative="1" as="geometry" />
        </mxCell>
        <mxCell id="yJ9xiVmko6FUMowYA85W-20" value="备件系统" style="shape=process;whiteSpace=wrap;html=1;backgroundOutline=1;" vertex="1" parent="1">
          <mxGeometry x="1090" y="240" width="120" height="60" as="geometry" />
        </mxCell>
        <mxCell id="yJ9xiVmko6FUMowYA85W-21" value="轨迹库&lt;br&gt;[商船]" style="shape=cylinder3;whiteSpace=wrap;html=1;boundedLbl=1;backgroundOutline=1;size=15;" vertex="1" parent="1">
          <mxGeometry x="490" y="700" width="60" height="80" as="geometry" />
        </mxCell>
        <mxCell id="yJ9xiVmko6FUMowYA85W-22" value="轨迹库&lt;br&gt;[渔船]" style="shape=cylinder3;whiteSpace=wrap;html=1;boundedLbl=1;backgroundOutline=1;size=15;" vertex="1" parent="1">
          <mxGeometry x="590" y="700" width="60" height="80" as="geometry" />
        </mxCell>
        <mxCell id="yJ9xiVmko6FUMowYA85W-32" value="" style="edgeStyle=orthogonalEdgeStyle;rounded=0;orthogonalLoop=1;jettySize=auto;html=1;" edge="1" parent="1" source="yJ9xiVmko6FUMowYA85W-29" target="yJ9xiVmko6FUMowYA85W-31">
          <mxGeometry relative="1" as="geometry" />
        </mxCell>
        <mxCell id="yJ9xiVmko6FUMowYA85W-29" value="轨迹库&lt;br&gt;[精密智控]&lt;br&gt;[2T]" style="shape=cylinder3;whiteSpace=wrap;html=1;boundedLbl=1;backgroundOutline=1;size=15;" vertex="1" parent="1">
          <mxGeometry x="690" y="700" width="60" height="80" as="geometry" />
        </mxCell>
        <mxCell id="yJ9xiVmko6FUMowYA85W-30" value="数字运维" style="shape=process;whiteSpace=wrap;html=1;backgroundOutline=1;" vertex="1" parent="1">
          <mxGeometry x="210" y="390" width="120" height="60" as="geometry" />
        </mxCell>
        <mxCell id="yJ9xiVmko6FUMowYA85W-31" value="数字运维库在这里" style="ellipse;whiteSpace=wrap;html=1;" vertex="1" parent="1">
          <mxGeometry x="680" y="540" width="80" height="80" as="geometry" />
        </mxCell>
        <mxCell id="yJ9xiVmko6FUMowYA85W-36" value="数字运营系统" style="shape=process;whiteSpace=wrap;html=1;backgroundOutline=1;" vertex="1" parent="1">
          <mxGeometry x="380" y="390" width="120" height="60" as="geometry" />
        </mxCell>
        <mxCell id="yJ9xiVmko6FUMowYA85W-37" value="轨迹库&lt;br&gt;[福建]" style="shape=cylinder3;whiteSpace=wrap;html=1;boundedLbl=1;backgroundOutline=1;size=15;" vertex="1" parent="1">
          <mxGeometry x="400" y="700" width="60" height="80" as="geometry" />
        </mxCell>
        <mxCell id="yJ9xiVmko6FUMowYA85W-38" value="历史轨迹库&lt;br&gt;[HDD28T]&lt;br&gt;" style="shape=cylinder3;whiteSpace=wrap;html=1;boundedLbl=1;backgroundOutline=1;size=15;" vertex="1" parent="1">
          <mxGeometry x="320" y="680" width="60" height="130" as="geometry" />
        </mxCell>
        <mxCell id="yJ9xiVmko6FUMowYA85W-40" value="ecs-redis" style="ellipse;shape=cloud;whiteSpace=wrap;html=1;" vertex="1" parent="1">
          <mxGeometry x="1340" y="220" width="110" height="80" as="geometry" />
        </mxCell>
        <mxCell id="yJ9xiVmko6FUMowYA85W-45" style="edgeStyle=orthogonalEdgeStyle;rounded=0;orthogonalLoop=1;jettySize=auto;html=1;exitX=0;exitY=0.5;exitDx=0;exitDy=0;entryX=0.988;entryY=0.589;entryDx=0;entryDy=0;entryPerimeter=0;" edge="1" parent="1" source="yJ9xiVmko6FUMowYA85W-42" target="yJ9xiVmko6FUMowYA85W-43">
          <mxGeometry relative="1" as="geometry" />
        </mxCell>
        <mxCell id="yJ9xiVmko6FUMowYA85W-48" style="edgeStyle=orthogonalEdgeStyle;rounded=0;orthogonalLoop=1;jettySize=auto;html=1;" edge="1" parent="1" source="yJ9xiVmko6FUMowYA85W-42" target="yJ9xiVmko6FUMowYA85W-12">
          <mxGeometry relative="1" as="geometry" />
        </mxCell>
        <mxCell id="yJ9xiVmko6FUMowYA85W-70" style="edgeStyle=orthogonalEdgeStyle;rounded=0;orthogonalLoop=1;jettySize=auto;html=1;entryX=0.5;entryY=1.087;entryDx=0;entryDy=0;entryPerimeter=0;" edge="1" parent="1" source="yJ9xiVmko6FUMowYA85W-42" target="yJ9xiVmko6FUMowYA85W-69">
          <mxGeometry relative="1" as="geometry" />
        </mxCell>
        <mxCell id="yJ9xiVmko6FUMowYA85W-42" value="数据上报服务" style="shape=process;whiteSpace=wrap;html=1;backgroundOutline=1;" vertex="1" parent="1">
          <mxGeometry x="690" y="-763" width="120" height="60" as="geometry" />
        </mxCell>
        <mxCell id="yJ9xiVmko6FUMowYA85W-43" value="smart-ctl-redis" style="ellipse;shape=cloud;whiteSpace=wrap;html=1;" vertex="1" parent="1">
          <mxGeometry x="490" y="-780" width="110" height="80" as="geometry" />
        </mxCell>
        <mxCell id="yJ9xiVmko6FUMowYA85W-46" style="edgeStyle=orthogonalEdgeStyle;rounded=0;orthogonalLoop=1;jettySize=auto;html=1;exitX=0.5;exitY=0;exitDx=0;exitDy=0;entryX=0.55;entryY=0.95;entryDx=0;entryDy=0;entryPerimeter=0;" edge="1" parent="1" source="yJ9xiVmko6FUMowYA85W-44" target="yJ9xiVmko6FUMowYA85W-43">
          <mxGeometry relative="1" as="geometry" />
        </mxCell>
        <mxCell id="yJ9xiVmko6FUMowYA85W-49" style="edgeStyle=orthogonalEdgeStyle;rounded=0;orthogonalLoop=1;jettySize=auto;html=1;exitX=1;exitY=0.5;exitDx=0;exitDy=0;entryX=0;entryY=0.5;entryDx=0;entryDy=0;entryPerimeter=0;" edge="1" parent="1" source="yJ9xiVmko6FUMowYA85W-44" target="yJ9xiVmko6FUMowYA85W-12">
          <mxGeometry relative="1" as="geometry" />
        </mxCell>
        <mxCell id="yJ9xiVmko6FUMowYA85W-44" value="迪泰设备管理平台" style="shape=process;whiteSpace=wrap;html=1;backgroundOutline=1;" vertex="1" parent="1">
          <mxGeometry x="490" y="-650" width="120" height="60" as="geometry" />
        </mxCell>
        <mxCell id="yJ9xiVmko6FUMowYA85W-50" value="浙江省精密智控" style="shape=cylinder3;whiteSpace=wrap;html=1;boundedLbl=1;backgroundOutline=1;size=15;" vertex="1" parent="1">
          <mxGeometry x="1470" y="-240" width="60" height="80" as="geometry" />
        </mxCell>
        <mxCell id="yJ9xiVmko6FUMowYA85W-55" style="edgeStyle=orthogonalEdgeStyle;rounded=0;orthogonalLoop=1;jettySize=auto;html=1;entryX=0.339;entryY=0.007;entryDx=0;entryDy=0;entryPerimeter=0;" edge="1" parent="1" source="yJ9xiVmko6FUMowYA85W-51" target="yJ9xiVmko6FUMowYA85W-50">
          <mxGeometry relative="1" as="geometry" />
        </mxCell>
        <mxCell id="yJ9xiVmko6FUMowYA85W-68" style="edgeStyle=orthogonalEdgeStyle;rounded=0;orthogonalLoop=1;jettySize=auto;html=1;entryX=0.5;entryY=1;entryDx=0;entryDy=0;" edge="1" parent="1" source="yJ9xiVmko6FUMowYA85W-51" target="yJ9xiVmko6FUMowYA85W-67">
          <mxGeometry relative="1" as="geometry" />
        </mxCell>
        <mxCell id="yJ9xiVmko6FUMowYA85W-51" value="数据上报服务" style="shape=process;whiteSpace=wrap;html=1;backgroundOutline=1;" vertex="1" parent="1">
          <mxGeometry x="1430" y="-380" width="120" height="60" as="geometry" />
        </mxCell>
        <mxCell id="yJ9xiVmko6FUMowYA85W-56" style="edgeStyle=orthogonalEdgeStyle;rounded=0;orthogonalLoop=1;jettySize=auto;html=1;entryX=1;entryY=0.5;entryDx=0;entryDy=0;entryPerimeter=0;" edge="1" parent="1" source="yJ9xiVmko6FUMowYA85W-52" target="yJ9xiVmko6FUMowYA85W-50">
          <mxGeometry relative="1" as="geometry" />
        </mxCell>
        <mxCell id="yJ9xiVmko6FUMowYA85W-52" value="设备管理平台" style="shape=process;whiteSpace=wrap;html=1;backgroundOutline=1;" vertex="1" parent="1">
          <mxGeometry x="1600" y="-230" width="120" height="60" as="geometry" />
        </mxCell>
        <mxCell id="yJ9xiVmko6FUMowYA85W-54" style="edgeStyle=orthogonalEdgeStyle;rounded=0;orthogonalLoop=1;jettySize=auto;html=1;entryX=0;entryY=0.5;entryDx=0;entryDy=0;" edge="1" parent="1" source="yJ9xiVmko6FUMowYA85W-53" target="yJ9xiVmko6FUMowYA85W-51">
          <mxGeometry relative="1" as="geometry" />
        </mxCell>
        <mxCell id="yJ9xiVmko6FUMowYA85W-53" value="elb&lt;br&gt;10.235.254.49" style="rhombus;whiteSpace=wrap;html=1;" vertex="1" parent="1">
          <mxGeometry x="1230" y="-390" width="130" height="80" as="geometry" />
        </mxCell>
        <mxCell id="yJ9xiVmko6FUMowYA85W-63" value="" style="edgeStyle=orthogonalEdgeStyle;rounded=0;orthogonalLoop=1;jettySize=auto;html=1;" edge="1" parent="1" source="yJ9xiVmko6FUMowYA85W-57" target="yJ9xiVmko6FUMowYA85W-58">
          <mxGeometry relative="1" as="geometry" />
        </mxCell>
        <mxCell id="yJ9xiVmko6FUMowYA85W-65" value="" style="edgeStyle=orthogonalEdgeStyle;rounded=0;orthogonalLoop=1;jettySize=auto;html=1;" edge="1" parent="1" source="yJ9xiVmko6FUMowYA85W-57" target="yJ9xiVmko6FUMowYA85W-42">
          <mxGeometry relative="1" as="geometry">
            <Array as="points">
              <mxPoint x="610" y="-350" />
              <mxPoint x="610" y="-541" />
              <mxPoint x="830" y="-541" />
              <mxPoint x="830" y="-733" />
            </Array>
          </mxGeometry>
        </mxCell>
        <mxCell id="yJ9xiVmko6FUMowYA85W-66" style="edgeStyle=orthogonalEdgeStyle;rounded=0;orthogonalLoop=1;jettySize=auto;html=1;exitX=0.5;exitY=1;exitDx=0;exitDy=0;entryX=0.5;entryY=0;entryDx=0;entryDy=0;entryPerimeter=0;" edge="1" parent="1" source="yJ9xiVmko6FUMowYA85W-57" target="yJ9xiVmko6FUMowYA85W-3">
          <mxGeometry relative="1" as="geometry" />
        </mxCell>
        <mxCell id="yJ9xiVmko6FUMowYA85W-57" value="天线数据上报" style="shape=parallelogram;perimeter=parallelogramPerimeter;whiteSpace=wrap;html=1;fixedSize=1;" vertex="1" parent="1">
          <mxGeometry x="690" y="-380" width="120" height="60" as="geometry" />
        </mxCell>
        <mxCell id="yJ9xiVmko6FUMowYA85W-58" value="MQ" style="triangle;whiteSpace=wrap;html=1;" vertex="1" parent="1">
          <mxGeometry x="890" y="-390" width="60" height="80" as="geometry" />
        </mxCell>
        <mxCell id="yJ9xiVmko6FUMowYA85W-61" value="" style="edgeStyle=orthogonalEdgeStyle;rounded=0;orthogonalLoop=1;jettySize=auto;html=1;" edge="1" parent="1" source="yJ9xiVmko6FUMowYA85W-59" target="yJ9xiVmko6FUMowYA85W-58">
          <mxGeometry relative="1" as="geometry" />
        </mxCell>
        <mxCell id="yJ9xiVmko6FUMowYA85W-64" value="" style="edgeStyle=orthogonalEdgeStyle;rounded=0;orthogonalLoop=1;jettySize=auto;html=1;" edge="1" parent="1" source="yJ9xiVmko6FUMowYA85W-59" target="yJ9xiVmko6FUMowYA85W-53">
          <mxGeometry relative="1" as="geometry" />
        </mxCell>
        <mxCell id="yJ9xiVmko6FUMowYA85W-59" value="上报外挂服务" style="shape=process;whiteSpace=wrap;html=1;backgroundOutline=1;" vertex="1" parent="1">
          <mxGeometry x="1030" y="-380" width="120" height="60" as="geometry" />
        </mxCell>
        <mxCell id="yJ9xiVmko6FUMowYA85W-67" value="OBS" style="shape=dataStorage;whiteSpace=wrap;html=1;fixedSize=1;" vertex="1" parent="1">
          <mxGeometry x="1440" y="-530" width="100" height="80" as="geometry" />
        </mxCell>
        <mxCell id="yJ9xiVmko6FUMowYA85W-69" value="MINIO" style="shape=dataStorage;whiteSpace=wrap;html=1;fixedSize=1;" vertex="1" parent="1">
          <mxGeometry x="700" y="-907" width="100" height="80" as="geometry" />
        </mxCell>
        <mxCell id="yJ9xiVmko6FUMowYA85W-73" value="结算库" style="shape=cylinder3;whiteSpace=wrap;html=1;boundedLbl=1;backgroundOutline=1;size=15;" vertex="1" parent="1">
          <mxGeometry x="1140" width="60" height="80" as="geometry" />
        </mxCell>
        <mxCell id="yJ9xiVmko6FUMowYA85W-83" style="edgeStyle=orthogonalEdgeStyle;rounded=0;orthogonalLoop=1;jettySize=auto;html=1;exitX=0.1;exitY=0.5;exitDx=0;exitDy=0;exitPerimeter=0;entryX=0;entryY=0.5;entryDx=0;entryDy=0;entryPerimeter=0;" edge="1" parent="1" source="yJ9xiVmko6FUMowYA85W-81" target="yJ9xiVmko6FUMowYA85W-1">
          <mxGeometry relative="1" as="geometry">
            <Array as="points">
              <mxPoint x="1060" y="425" />
              <mxPoint x="1060" y="410" />
            </Array>
          </mxGeometry>
        </mxCell>
        <mxCell id="yJ9xiVmko6FUMowYA85W-85" value="" style="group" vertex="1" connectable="0" parent="1">
          <mxGeometry x="870" y="230" width="145" height="380" as="geometry" />
        </mxCell>
        <mxCell id="yJ9xiVmko6FUMowYA85W-16" value="迪泰之家" style="shape=process;whiteSpace=wrap;html=1;backgroundOutline=1;" vertex="1" parent="yJ9xiVmko6FUMowYA85W-85">
          <mxGeometry width="120" height="60" as="geometry" />
        </mxCell>
        <mxCell id="yJ9xiVmko6FUMowYA85W-76" value="迪泰充值管理平台" style="shape=process;whiteSpace=wrap;html=1;backgroundOutline=1;container=0;" vertex="1" parent="yJ9xiVmko6FUMowYA85W-85">
          <mxGeometry y="100" width="120" height="60" as="geometry" />
        </mxCell>
        <mxCell id="yJ9xiVmko6FUMowYA85W-77" value="福建充值管理平台" style="shape=process;whiteSpace=wrap;html=1;backgroundOutline=1;container=0;" vertex="1" parent="yJ9xiVmko6FUMowYA85W-85">
          <mxGeometry y="200" width="120" height="60" as="geometry" />
        </mxCell>
        <mxCell id="yJ9xiVmko6FUMowYA85W-78" value="精密智控充值管理平台" style="shape=process;whiteSpace=wrap;html=1;backgroundOutline=1;container=0;" vertex="1" parent="yJ9xiVmko6FUMowYA85W-85">
          <mxGeometry y="320" width="120" height="60" as="geometry" />
        </mxCell>
        <mxCell id="yJ9xiVmko6FUMowYA85W-81" value="" style="shape=curlyBracket;whiteSpace=wrap;html=1;rounded=1;flipH=1;labelPosition=right;verticalLabelPosition=middle;align=left;verticalAlign=middle;container=0;" vertex="1" parent="yJ9xiVmko6FUMowYA85W-85">
          <mxGeometry x="125" y="40" width="20" height="310" as="geometry" />
        </mxCell>
        <mxCell id="yJ9xiVmko6FUMowYA85W-87" style="edgeStyle=orthogonalEdgeStyle;rounded=0;orthogonalLoop=1;jettySize=auto;html=1;" edge="1" parent="1" source="yJ9xiVmko6FUMowYA85W-86" target="yJ9xiVmko6FUMowYA85W-1">
          <mxGeometry relative="1" as="geometry">
            <Array as="points">
              <mxPoint x="1060" y="410" />
            </Array>
          </mxGeometry>
        </mxCell>
        <mxCell id="yJ9xiVmko6FUMowYA85W-86" value="迪泰V2" style="rounded=0;whiteSpace=wrap;html=1;" vertex="1" parent="1">
          <mxGeometry x="995" y="120" width="120" height="60" as="geometry" />
        </mxCell>
        <mxCell id="yJ9xiVmko6FUMowYA85W-89" style="edgeStyle=orthogonalEdgeStyle;rounded=0;orthogonalLoop=1;jettySize=auto;html=1;exitX=0.5;exitY=0;exitDx=0;exitDy=0;entryX=1;entryY=0.5;entryDx=0;entryDy=0;entryPerimeter=0;" edge="1" parent="1" source="yJ9xiVmko6FUMowYA85W-88" target="yJ9xiVmko6FUMowYA85W-1">
          <mxGeometry relative="1" as="geometry" />
        </mxCell>
        <mxCell id="yJ9xiVmko6FUMowYA85W-88" value="福建V2" style="shape=process;whiteSpace=wrap;html=1;backgroundOutline=1;" vertex="1" parent="1">
          <mxGeometry x="1235" y="670" width="120" height="60" as="geometry" />
        </mxCell>
      </root>
    </mxGraphModel>
  </diagram>
</mxfile>
